<?xml version="1.0" encoding="UTF-8"?>
<svg version="1.1" viewBox="0 0 2048 1213" width="910" height="539" xmlns="http://www.w3.org/2000/svg">
<path transform="translate(0)" d="m0 0h2048v1213h-2048z"/>
<path transform="translate(705)" d="m0 0h12l-5 5-18 14-16 12-15 12-13 10-11 9-17 14-16 13-9 7-16 13-28 22-18 14-19 14-17 12-25 16-25 15-18 10-31 15-28 10-21 6-27 5-15 2-17 1h-26l-11-1 2 13 1 11 1 23v100l4 9 6 7 12 5 12 2h16l16-3 5-2v-23l4-13 6-9 8-4h11l6 3 4 8v14l-6 12-6 7-14 9-4 3 4 24 6 21v2l7-1h27l18 3 26 7 47 14 12 5 4 4 1 5-4 2-53 6-15 2-18 1-14-2-11-4-11-7-9-9-9-14-2-4h-7l-12 3 2 9 12 23 7 20 5 8 7 6 13 5-2-6v-8l4-6 9-6 13-4 7-1 17-1 32 1 16 2 6 4v4l-8 5-25 10-28 9-29 6 6 27 5 12 7 12 7 7 10 7 19 10 15 5 10 2h20l23-4 33-11 20-9 15-8 12-8 13-10 10-8 13-12 15-15 9-11 10-12 12-17 3-5-1-6-10-15-14-20-20-30-10-17-9-21-5-19-1-8v-9l2-15 6-24 8-21 11-21 8-12 11-13 11-9 14-7 11-2 12 1 11 4 11 8 8 7 9 13 6 18 2 13v35l-3 24-5 24-9 31-8 21-9 20-8 16-11 21-7 12 10 19 8 24 2 10v25l-4 16-7 16-9 15-11 14-14 14-15 11-15 9-17 9-25 10-41 14-36 12-8 3 15 4 13 7 8 8 7 14 2 9v20l-4 20-6 21v2l22-33 10-13 11-13 14-14 14-11 15-9 14-6 12-3h15l6 3v3l-10-2-9 1-10 4-11 7-17 16-9 12-11 17-9 16-10 22-10 30-4 24v15l3 13 6 10 5 5 5 4 10 4 5 1h16l16-3 12-5 11-8 9-8 4-4 4 1-1 6-7 7-14 9-11 5-16 4-15 2-15-1-13-4-8-4-8-7-6-10-4-13-1-6v-14l3-19 6-21 8-20 13-26 9-14 11-14 11-11 1-3-7 4-13 12-8 8-11 14-13 18-12 19-9 15-15 27-12 20-7 9-1 1h-5l-1-3 7-11 9-12 10-18 8-19 9-30 3-14 1-8v-14l-2-5-3-1-16 40-12 25-10 18-12 19-11 13-11 11-13 9-15 6-5 1h-18l-6-3-4-5-1-2v-7h3l4 9 4 3 5 1h7l13-4 10-6 12-11 9-10 10-16 12-21 17-33 15-29 8-15 1-8-4-6-7-6-11-4-12-2h-7l-14 4-16 8-15 9-16 12-13 12-10 12-8 13-6 14-4 14-1 12 2 8 5 6 5 2h12l10-5 10-8 10-11 8-13 6-14 4-19h7l-2 10-9 21-8 14-9 11-8 8-14 9-6 2h-16l-8-4-5-6-3-9v-11l2-14-8 16-6 16-4 15-3 20v28l4 26 6 23 8 22 10 23 14 29 33 66 8 19v2l-6 1-8-15-10-22-10-19-24-48-13-29-10-28-5-18-4-23-1-9v-29l3-20 6-21 8-19 6-11 16-21 11-17 11-12 12-12 13-10 10-6 13-5 23-7 31-12 61-20 24-9 25-12 14-9 12-9 12-11 9-10 10-15 8-16 4-14 2-19-2-16-5-17-9-20-1-3-5 5-12 17-9 11-12 14-24 24-11 9-13 10-20 12-16 8-21 9-28 9-13 3-8 1h-23l-15-3-20-8-16-9-10-8-7-7-8-14-4-10-6-25-2-6-13-3-10-6-8-8-6-12-6-17-11-21-2-6v-8l2-5 5-3 15-2-5-17-4-22-1-6-14 3-10 1h-16l-15-3-12-6-8-9-4-9-2-15 1-86-2-37-2-13-29-5-29-8-32-11-17-8-11-8-6-5-4-6 1-4 27-9 19-5 6-1h22l15 4 15 8 12 11 7 10 6 12 5 17 12 1h30l21-2 30-5 25-7 22-8 29-14 26-14 20-12 18-12 23-16 19-14 12-9 13-10 16-13 14-11 17-14 10-8 13-11 14-11 16-13 14-11 13-10 19-14z" fill="#FCFCFB"/>
<path transform="translate(1388,736)" d="m0 0h2v5l-8 6-18 7-12 11-11 16-10 16-14 27-7 17-5 15-6 27v22l4 15 5 8 1 3 14 7 8 2h19l15-4 12-5 10-7 12-12 4 1 1 4-5 5-12 9-16 8-15 5-11 2h-16l-15-4-10-5-6-5-7-11-5-15-1-8v-11l3-17 5-18 11-29v-3l-14-1-10 15-14 23-12 16-14 17-17 17-14 10-17 8-16 4-7 1h-18l-13-3-11-6-10-9-7-9-5-12-1-4v-18l3-12 6-12 8-10 10-10 16-9 11-5 7-16 7-11 14-14 13-9 16-8 19-6 19-4 24-2h20l29 2 31 3h11l10-3z" fill="#FBFBFA"/>
<path transform="translate(677,251)" d="m0 0h16l12 5 11 9 7 7 8 16 3 13 1 7v33l-3 24-6 28-8 26-9 24-13 28-12 22-6 10h-2l-10-16-14-20-22-33-11-20-6-15-4-16-1-15 3-20 7-24 8-19 8-15 10-14 9-10 9-8 12-6z"/>
<path transform="translate(1195,810)" d="m0 0h28l30 3 18 3 4 2-1 5-10 16-13 19-12 17-11 14-11 12-12 10-13 8-13 5-10 2h-13l-12-3-11-6-7-6-7-11-5-14v-14l3-12 7-13 8-10 9-8 12-7 4 1 2 18 4 10 5 7 10 6 10 3h13l10-3 8-6 6-8 2-5 1-6-5-1-2 11-5 8-9 6-8 2h-7l-10-3-8-6-6-10-2-8v-16l3-6 7-3z"/>
<path transform="translate(752,765)" d="m0 0h11l-2 6-16 28-13 23-9 16-11 23v7l4 4h7l11-8 8-11 7-18 7-11 11-12 10-7 5-2h13l5 3 4 6 1 9-2 13-1 2 11-2 10-6 7-8h3l-2 5-6 7-8 5-12 3h-5l-2 5-9 14-9 10-9 6-5 2h-12l-6-3-4-6-2-7-13 13-6 3h-11l-6-3-6-9-12 10-5 2h-10l-5-3-4-8v-6l-14 14-7 3h-11l-7-4-3-5v-2l-5 2-11 8-2 1h-10l-6-4-3-6v-11l4-13 5-11 7-11 12-13 10-5h12l5 3 3 6v3l3-3 4-8 1-1h11l-1 4-11 20-8 14-8 16-1 3v8l3 4h8l8-6 8-9 10-18 8-14 8-10 8-8 8-4 10-1 6 3 6 9 15-27 11-20z" fill="#FCFCFB"/>
<path transform="translate(1539,765)" d="m0 0h12l-6 11-18 32v5l13-9 4-2h10l5 4 1 4-2 9-9 16-16 24-2 4v7l2 2h8l10-5 7-6 7-10 8-18 8-12 9-10 8-6 8-3h9l5 3 3 4v10l-6 10-8 7-12 5-17 3-3 10v11l4 5 5 2h8l11-4 11-10 10-14 9-12 11-20 1-4-10-1-2-1v-2l15-1 7-10 14-27h13l-2 5-10 17-7 14v1l17 1-1 3-19 1-7 10-16 29-6 12-1 5 2 8h9l7-4 5-5 6-7 7-11 6-7 10-17 9-17 2-1h11l-8 15-16 29-6 13v8l4 4h7l8-6 7-8 8-14 8-16 7-10 8-8 10-6 11-2 6 2 4 4 1 2v9l-7 14-9 9-7 1v-4l10-7 6-7 3-9-1-8-8-1-5 3-8 8-9 13-9 17-2 6v10l3 5 6 3h9l10-4 10-9 9-13 11-18 9-11 8-7 8-4 9-2h13v2l-9 4-5 8-2 8-3 25-4 13-2 6 9-5 10-9 10-15h3l-2 6-9 12-9 9-14 7-9 2h-15l-6-4-3-4 3-9 5-3 5 2 1 3-4 8v2h7l6-4 4-7 5-23 4-18 3-10-10 6-8 8-10 15-10 16-8 10-7 7-8 4-4 1h-17l-8-4-4-6-1-8-15 15-6 3h-12l-6-4-3-5-1-11-8 10-7 7-6 3h-12l-5-3-4-7v-10l1-2h-2l-2 4-7 8-10 7-10 3h-12l-9-3-4-5-2-4v-8l-4 4-7 8-8 6-6 2h-13l-6-4-2-7 3-10 6-11 10-14 9-13 3-6-1-5-8 1-9 7-10 9-11 12-9 14-13 25-1 1h-12l2-5 10-17 15-28 13-23 14-25 7-12z" fill="#FBFBFA"/>
<path transform="translate(1272,745)" d="m0 0h32l27 2 14 2v3l-17 10-10 8-10 9-8 8-13 17-7 9-16-1-42-5h-38l-14 1 2-9 7-11 11-12 13-10 19-10 15-5 24-5z"/>
<path transform="translate(969,802)" d="m0 0 6 1 5 4 1 6-4 11-9 14-9 13-8 14 1 5 2 2h9l9-5 7-6 8-11 12-23 8-10 6-7 9-6 3-1h13l5 5 2 4v3h3l3-9 2-3h12l-2 5-16 28-10 19-2 7 1 7 3 3h7l6-4 5-5 8-10 7-11 3-1-1 5-9 14-8 10-9 6-2 1h-12l-5-3-6-8-5 3-8 6-4 2h-10l-6-4-3-8 1-8h-2l-2 4-11 11-10 5-8 1-8-2-5-5v-10l8-16 9-13 8-11 4-7-2-5h-6l-9 6-10 9-10 11-10 15-11 21-3 6-13-1 7-11 13-24 9-16 10-20 1-1h13l-4 7 1 4 10-8 8-4z" fill="#FDFDFC"/>
<path transform="translate(1482,766)" d="m0 0h13l-2 5-9 15-8 15v2l16 1v3l-19 1-7 10-15 27-7 14v10l3 3h7l9-5 9-11 9-15h3l-1 5-12 18-11 11-5 2h-12l-6-4-3-6v-12l-13 13-10 6-13 3h-15l-6-3-2-3v-7l3-5 1-1h6l3 3-3 7-1 4h7l6-4 5-10 7-35 4-13-10 6-7 7-9 13-11 18-9 11-9 7-8 4-5 1h-13l-8-3-5-6-2-7 1-11 4-11 7-13 8-10 8-8 10-5 3-1h10l6 5 1 2v9l-5 10-9 8-12 5-15 3-4 6-2 11 3 7 5 3 3 1h8l9-4 9-7 11-15 11-18 8-10 9-8 8-4 10-2h12l-3 3-7 4-5 10-5 35-5 14 8-4 10-9 9-12 7-8 11-19 5-10-12-1-1-3 15-1 6-9 11-20z" fill="#FCFCFB"/>
<path transform="translate(175,187)" d="m0 0h13l15 3 12 5 10 8 9 9 8 16 4 12v2l-21-3-22-5-36-12-15-6-11-6-12-9v-2l29-9z"/>
<path transform="translate(359,475)" d="m0 0h20l20 3 29 8 38 11 9 3-1 2-39 5-22 3h-10l-17-3-9-4-9-6-7-7-8-12v-2z"/>
<path transform="translate(880,802)" d="m0 0 7 1 4 4 1 6-3 9-7 12-12 17-8 14v6l3 1h9l8-4 10-9 11-16 4-2-2 5-7 11-9 10-8 7-7 3-8 1-8-2-5-5v-9l4-10 8-13 10-13 6-10 1-4-2-3h-6l-9 6-12 11-11 13-9 15-12 22-2 1-10-1 2-4 25-45 8-15 4-8h13l-4 8v3l13-9z" fill="#FDFDFC"/>
<path transform="translate(1387 1e3)" d="m0 0h5l-1 6-3 3 1 5 1 2v9l-4 6-5 3-5 1h-10l2 7 17 1 7 3 3 6-1 7-6 7-6 2h-15l-8-3-4-6v-6l4-5 3-3-2-3v-5l3-3h2l-6-10v-9l4-6 4-3 3-1h9l6 2z" fill="#FDFDFC"/>
<path transform="translate(1030,807)" d="m0 0h7l4 5v8l-7 19-8 15-8 10-8 7-2 1h-7l-4-4v-9l4-13 8-16 9-13 7-7z"/>
<path transform="translate(628,807)" d="m0 0h6l5 6-1 9-7 19-9 15-8 10-8 6h-7l-5-5 1-10 5-15 10-18 8-10 8-6z"/>
<path transform="translate(709,806)" d="m0 0 5 1 4 5v8l-6 16-8 16-9 12-8 7-2 1h-6l-4-4v-13l4-11 10-18 10-13 8-6z"/>
<path transform="translate(773,819)" d="m0 0h4l4 10 5 6 9 6-1 5-7 10-8 9-9 6-8 2-5-2-3-4-1-3v-9l6-16 9-15z"/>
<path transform="translate(406,527)" d="m0 0h40l13 1-1 3-24 9-19 6-19 5-6 1h-10l-3-8v-6l6-5 11-4z"/>
<path transform="translate(1417,1006)" d="m0 0h8l7 2 6 7 2 7v8h-32l4 11 6 4h9l6-4 4-2 2 3-6 7-4 2h-13l-8-4-5-8-1-4v-13l5-10 5-4z" fill="#FDFDFC"/>
<path transform="translate(1129,1006)" d="m0 0h8l7 2 6 7 2 8v7h-32l3 10 5 4 2 1h9l6-4 4-2 2 3-6 7-4 2h-13l-7-3-6-9-1-4v-12l3-8 5-6z" fill="#FDFDFC"/>
<path transform="translate(1047,1006)" d="m0 0h10l7 3 3 6 1 30 6 2v3h-9l-3-4-4 2-5 3h-11l-7-6-1-9 3-6 7-4 13-4 4-1-2-7-3-2-9 1-7 4h-3l-1-3 4-5z" fill="#FDFDFC"/>
<path transform="translate(1349,754)" d="m0 0h5l-2 4-16 16-11 15-12 19-5 8-13-1-2-1 1-4 7-12 11-14 14-15 13-10z"/>
<path transform="translate(1222,1006)" d="m0 0 11 1 7 4 5 10v16l-4 8-6 5-3 1h-13l-6-3-6-7-2-7v-11l4-10 8-6zm2 5-7 3-4 4-2 7v7l3 9 5 4 2 1h8l7-4 3-8v-11l-3-7-5-4z" fill="#FDFDFC"/>
<path transform="translate(878,989)" d="m0 0h6l1 36 8-8 7-8 4-3h4l-2 5-12 13-2 4 9 10 9 11v2h-6l-9-9-9-11-2-1v20h-6z" fill="#FDFDFC"/>
<path transform="translate(349,373)" d="m0 0h8l5 5v10l-4 10-4 5-13 9-3 1-1-1v-20l4-11 4-6z"/>
<path transform="translate(1325,1006)" d="m0 0h8l7 3 4 7v35l-6-1-1-32-3-5-8-1-6 3-4 7-1 20v8h-7v-43h6l1 6 7-6z" fill="#FDFDFC"/>
<path transform="translate(1258,1007)" d="m0 0h6l1 33 2 4 2 1h9l6-5 2-9 1-24h6v43l-5 1-2-6-8 6h-11l-5-3-4-6z" fill="#FDFDFC"/>
<path transform="translate(941,1006)" d="m0 0 5 1 1 5-1 2 9-7 10-1 7 3 3 3 2 7v31h-7v-29l-2-6-4-3-9 1-5 5-2 6-1 26h-6z" fill="#FDFDFC"/>
<path transform="translate(845,1006)" d="m0 0h8l7 2 3 4-1 4-10-4h-7l-4 3 1 6 5 3 13 4 5 5 1 7-2 5-6 5-3 1h-11l-8-3-3-4 2-5 8 5 3 1h8l4-3 1-4-2-4-17-6-5-5-1-8 4-6z" fill="#FDFDFC"/>
<path transform="translate(1e3 1006)" d="m0 0h9l8 3 4 6-4 4-6-5-2-1h-10l-5 4-2 4-1 9 2 9 5 5 2 1h9l5-3 3-4h4l-1 5-5 6-4 2h-13l-6-3-6-7-2-6v-13l5-10 7-5z" fill="#FDFDFC"/>
<path transform="translate(1609,806)" d="m0 0h5l3 3 1 5-4 10-5 6-16 8-9 2 1-5 7-12 11-12z"/>
<path transform="translate(1361,806)" d="m0 0h5l3 4v8l-6 10-9 6-12 5-6 1 1-5 7-12 9-10z"/>
<path transform="translate(790,807)" d="m0 0 6 1 4 4 1 3v11l-4 10-6-1-8-7-2-6 1-8 4-5z"/>
<path transform="translate(1184,989)" d="m0 0h6v56l7 1 2 4-1 1h-8l-5-4-1-2z" fill="#FDFDFC"/>
<path transform="translate(1083,1007)" d="m0 0h6l1 6 4-5 2-1h11v6h-10l-5 5-2 5-1 27h-6z" fill="#FDFDFC"/>
<path transform="translate(1365,1050)" d="m0 0h19l4 2 1 5-4 5-4 2h-13l-5-3-2-2v-6z"/>
<path transform="translate(1372,1011)" d="m0 0h6l6 5v9l-5 5h-9l-5-5-1-5 3-6z"/>
<path transform="translate(1059,1027)" d="m0 0h2v11l-4 6-6 3-7-1-3-3-1-7 3-4z"/>
<path transform="translate(1419,1011)" d="m0 0h7l6 5 2 9h-25l-1-2 4-8 4-3z"/>
<path transform="translate(1131,1011)" d="m0 0h7l6 5 2 8-1 1h-25l1-5 4-6z"/>
<path transform="translate(919,1007)" d="m0 0h6v43h-6z" fill="#FDFDFC"/>
<path transform="translate(1710,777)" d="m0 0 6 1 1 2v6l-4 6-3 2h-7l-2-2v-6l4-6z" fill="#FDFDFC"/>
<path transform="translate(516,804)" d="m0 0 1 2-6 13-7 12-1-3 7-16z"/>
<path transform="translate(1294,866)" d="m0 0 1 4-1 6 1 4h-2l-1 20h-1l-1-5v-14z"/>
<path transform="translate(919,990)" d="m0 0h7v7h-7l-1-5z" fill="#FDFDFC"/>
<path transform="translate(1518,813)" d="m0 0 2 1-1 5-8 9-1-2z"/>
<path transform="translate(1330,834)" d="m0 0h2l-1 5-5 5-2 1 2-7z"/>
<path transform="translate(1579,832)" d="m0 0 2 1-3 8-5 2 3-7z"/>
<path transform="translate(556,918)" d="m0 0 5 5 6 8-4-2-6-5z"/>
<path transform="translate(1164,811)" d="m0 0 1 3-4 8-3-3v-3z"/>
</svg>
